<?xml version="1.0" encoding="UTF-8" standalone="no"?>
<!-- Created with Inkscape (http://www.inkscape.org/) -->

<svg
   width="4.57305in"
   height="0.78204632in"
   viewBox="0 0 439.0128 75.076447"
   version="1.1"
   id="svg1"
   xml:space="preserve"
   xmlns="http://www.w3.org/2000/svg"
   xmlns:svg="http://www.w3.org/2000/svg"><defs
     id="defs1"><clipPath
       clipPathUnits="userSpaceOnUse"
       id="clipPath17"><path
         style="display:none;fill:#9b757d;fill-opacity:1"
         d="m 770.72018,242.89728 13.65319,-18.12396 c 0,0 2.44417,-3.72663 5.54953,-3.47418 0.88382,0.0719 -0.73253,3.09785 -0.73253,3.09785 l -9.73937,18.50029 c 0,0 -9.27273,0.0602 -8.73082,0 z"
         id="path17" /><path
         id="lpe_path-effect17"
         style="fill:#9b757d;fill-opacity:1"
         class="powerclip"
         d="m 730.63311,212.66367 h 67.87813 v 62.7252 h -67.87813 z m 40.08707,30.23361 c -0.54191,0.0602 8.73082,0 8.73082,0 l 9.73937,-18.50029 c 0,0 1.61635,-3.02595 0.73253,-3.09785 -3.10536,-0.25245 -5.54953,3.47418 -5.54953,3.47418 z" /></clipPath></defs><g
     id="layer1"
     transform="translate(-350.38093,-249.27014)"><text
       xml:space="preserve"
       style="font-size:59.3781px;writing-mode:lr-tb;direction:ltr;fill:#000000;fill-opacity:1;stroke-width:4.94818"
       x="347.53076"
       y="304.8075"
       id="text1"><tspan
         id="tspan1"
         x="347.53076"
         y="304.8075"
         style="font-style:normal;font-variant:normal;font-weight:500;font-stretch:normal;font-family:STIX;-inkscape-font-specification:'STIX Medium';fill:#000000;fill-opacity:1;stroke-width:4.94818">Contadora</tspan></text><text
       xml:space="preserve"
       style="font-size:79.0916px;writing-mode:lr-tb;direction:ltr;fill:#4a0e1d;fill-opacity:1;stroke-width:6.59098"
       x="634.6261"
       y="306.76114"
       id="text1-4"><tspan
         id="tspan1-3"
         x="634.6261"
         y="306.76114"
         style="font-style:normal;font-variant:normal;font-weight:normal;font-stretch:normal;font-family:josephsophia;-inkscape-font-specification:josephsophia;fill:#4a0e1d;fill-opacity:1;stroke-width:6.59098">con</tspan></text><path
       style="fill:#4a0e1d;fill-opacity:1;stroke:#4a0e1d;stroke-opacity:1"
       d="m 738.82329,263.75265 c 0.5035,1.67343 4.13599,2.91326 8.18172,0.0935 5.62012,-3.91705 12.13435,-11.36798 12.13435,-11.36798 l 6.94,-8.13214 c 0,0 -3.44871,-0.0426 -7.02515,-0.21293 -11.74252,-0.55932 -10.28475,6.26867 -12.30466,5.6627 -1.31515,-0.39455 0.85154,-4.59828 4.9389,-6.04589 1.73541,-0.61463 4.73059,-0.73138 7.72544,-0.78472 4.0588,-0.0723 8.02793,0.0609 8.02793,0.0609 0,0 6.79446,-8.91003 8.21729,-10.85705 1.61792,-2.21399 7.81543,-10.20178 8.98368,-11.19767 2.59718,-2.21398 6.47166,-3.44871 7.91927,-2.42687 1.4476,1.02184 -1.06442,5.44981 -1.06442,5.44981 0,0 -3.46581,5.90593 -5.74785,10.81448 -2.25657,4.85374 -4.00222,8.23858 -4.00222,8.23858 9.76807,1.31799 8.63521,-4.56245 10.34917,-3.87687 1.01751,0.407 0.0656,6.47653 -7.33138,6.30954 -2.64457,-0.0597 -3.69901,-0.19739 -3.69901,-0.19739 -3.83044,13.00602 -1.14285,19.18575 0.85154,19.75558 1.78822,0.51092 1.87337,2.46945 0.25546,2.3843 -1.73848,-0.0916 -8.8591,-3.0902 -2.88977,-22.32617 l -10.04452,-0.17926 c -6.89885,8.62284 -19.79233,24.31412 -25.71683,24.9706 0,0 -4.96871,0.25598 -7.01695,-4.39359 -1.433,-3.25295 1.69882,-3.79938 2.31801,-1.74147 z"
       id="path1"
       clip-path="url(#clipPath17)"
       transform="matrix(1.4239196,0,0,1.4239196,-340.50249,-60.665428)" /></g></svg>
